<?xml version="1.0" encoding="UTF-8"?>
<svg id="Layer_1" xmlns="http://www.w3.org/2000/svg" version="1.1" viewBox="0 0 500 500">
  <!-- Generator: Adobe Illustrator 30.0.0, SVG Export Plug-In . SVG Version: 2.1.1 Build 123)  -->
  <defs>
    <style>
      .st0 {
        fill: none;
      }

      .st1 {
        fill: #ffce00;
      }

      .st2 {
        fill: #a30075;
        fill-rule: evenodd;
      }

      .st3 {
        fill: #d00;
      }

      .st4 {
        fill: #dcdcdc;
      }
    </style>
  </defs>
  <path class="st0" d="M235.4,203.3"/>
  <rect class="st4" width="500" height="500"/>
  <path id="path20154" class="st2" d="M205.7,228.8l64.2,8.8c.2-1.9.4-3.7.6-5.6.2-1.9.5-3.7.8-5.6.2-.9.3-1.9.5-2.8s.3-1.9.5-2.8c.3-1.4.5-2.9.8-4.3.3-1.4.7-2.8,1.3-4.2.4-1,.8-1.9,1.3-2.7s1.1-1.7,1.8-2.4c.8-.8,1.5-1.5,2.4-2.1s1.6-1.4,2.4-2.1c.8-.8,1.5-1.7,2.1-2.7s1.1-2,1.4-3.1c.3-.9.5-1.9.5-2.9s0-1.9-.2-2.9-.4-1.9-.7-2.8c-.4-.9-.8-1.8-1.3-2.6s-1-1.5-1.7-2.1c-.6-.6-1.3-1.2-2-1.7s-1.4-.9-2.1-1.2c-.8-.4-1.5-.7-2.2-1-2.6-1.1-5.1-2.1-7.7-3s-5.3-1.7-7.9-2.4c-2-.5-4-1-6.1-1.3s-4.1-.6-6.2-.8c-1.6-.2-3.2-.3-4.8-.4s-3.2-.2-4.8-.2c-3.7,0-7.4.2-11,.6-3.7.4-7.3,1.1-10.8,2-2.5.6-4.9,1.3-7.3,2.2-2.4.8-4.8,1.7-7.1,2.7-1,.4-2,.8-2.9,1.2-1,.5-1.9,1-2.7,1.6-.6.4-1.1.9-1.6,1.3-.5.5-1,1-1.4,1.6-.7.9-1.2,1.8-1.6,2.7-.5,1-.8,2-.9,3-.1.6-.2,1.2-.2,1.8v1.9c0,.7.2,1.4.4,2.1.2.7.4,1.4.7,2,.3.8.7,1.5,1.1,2.1.4.7.9,1.3,1.5,1.9l.6.6.6.6c.2.2.5.4.7.5.2.2.5.4.7.5.3.2.5.4.7.6s.5.4.7.6c.6.6,1.2,1.2,1.7,1.8s1,1.3,1.4,2c.5.9,1,1.8,1.3,2.7.4,1,.7,1.9.9,2.9.4,1.4.7,2.8,1,4.2s.5,2.8.7,4.2l.4,2.5.4,2.5h-.9Z"/>
  <path id="path20158" class="st2" d="M328.6,266.2l-131.4-18.1c-.2,0-.4,0-.6-.1-.2,0-.4-.1-.6-.2-.3-.1-.5-.2-.8-.3s-.5-.2-.7-.4c-.3-.2-.6-.4-.9-.6-.3-.2-.5-.4-.8-.7l-.7-.7c-.2-.3-.4-.5-.6-.8-.2-.3-.4-.6-.5-.9-.2-.3-.3-.6-.4-1-.1-.4-.2-.8-.3-1.2s-.1-.8-.1-1.2,0-1,.2-1.4c.1-.5.2-.9.4-1.4.2-.4.3-.8.5-1.1.2-.4.4-.7.7-1,.4-.4.7-.8,1.1-1.2s.9-.7,1.4-.9c.3-.2.6-.3.9-.4s.7-.2,1-.3c.3,0,.5-.1.8-.2h2l129.3,17.8v15.6h0l.1.7Z"/>
  <path class="st2" d="M280.7,314.1c-.6-1.7-1.2-3.4-1.8-5.1-.9-2.6-1.8-5.3-2.6-7.9-.6-2.1-1.2-4.2-1.7-6.3-.6-2.1-1-4.2-1.5-6.3-.7-3.3-1.4-6.7-1.9-10s-.9-6.7-1.2-10.1c-.1-1.2-.2-2.5-.3-3.7,0-.6,0-1.2-.1-1.7l-62.3-8.6c0,1.2,0,2.5-.1,3.7,0,1.9-.2,3.8-.3,5.7-.3,4.1-.7,8.1-1.2,12.2-.6,4.1-1.3,8.1-2.2,12.1-.7,3.1-1.4,6.2-2.2,9.2-.8,3.1-1.7,6-2.7,9-.6,1.8-1.2,3.6-1.9,5.3-.3.9-.7,1.7-1,2.5h85Z"/>
  <g>
    <rect id="black_stripe" x="100" y="160" width="300" height="180"/>
    <rect id="red_stripe" class="st3" x="100" y="220" width="300" height="120"/>
    <rect id="gold_stripe" class="st1" x="100" y="280" width="300" height="60"/>
  </g>
</svg>