<?xml version="1.0" encoding="UTF-8"?>
<svg id="Layer_1" xmlns="http://www.w3.org/2000/svg" version="1.1" viewBox="0 0 504.1 501.1">
  <!-- Generator: Adobe Illustrator 29.3.1, SVG Export Plug-In . SVG Version: 2.1.0 Build 151)  -->
  <defs>
    <style>
      .st0 {
        fill-rule: evenodd;
      }

      .st0, .st1 {
        fill: #a30075;
      }
    </style>
  </defs>
  <polygon class="st0" points="258.1 125.2 256.6 125 240.8 125.3 225 127.7 209.6 132 194.8 138.2 181 146.2 168.3 155.8 157 166.9 147.2 179.4 139.1 192.9 132.8 207.3 128.3 222.4 125.8 237.9 125.3 253.7 126.7 269.4 130.1 284.8 135.6 299.6 142.9 313.5 152.1 326.1 162.9 337.2 174.5 347.6 174.3 347.8 185.1 343.4 174 333.8 162.9 322.9 153.4 310.7 146.1 296.9 140.9 282 137.7 266.3 136.7 250.5 137.7 234.7 140.7 219.2 145.8 204.4 153.1 190.3 162.2 177.4 173.2 165.9 185.6 155.9 199.3 147.7 214 141.6 229.4 137.6 245.2 135.9 258.1 136.2 258.1 125.2"/>
  <path class="st1" d="M373.7,236.5l-3-15.6-4.9-15.2-6.7-14.6-8.4-13.6-9.9-12.4-11.3-11.1-12.6-9.5-13.8-7.7-14.8-5.7-15.5-3.8-15.9-1.8h-16c0,.1-15.8,2.3-15.8,2.3l-15.4,4.2-14.7,6-13.8,7.9-12.6,9.4-11.3,10.9-9.9,12.3-8.2,13.4-6.4,14.4-4.6,15.1-2.7,15.5-.6,15.8,1.6,15.6,3.7,15.1,5.8,14.4,5.7,11.7,1.2,4,8.7,6.1h-4.1l3,3.9,9.9,12,11.3,10.7,12.8,9.1,14,7.3,14.8,5.4,15.2,3.5,15.6,1.5,15.7-.4,15.6-2.3,15.3-4.2,14.5-6.1,13.4-8,12-9.8,11.1-10.9,10.5-11.6h-84.5l-53.4-82.3-5.1-7.8c-8.2-12.7-22.3-20.3-37.4-20.3h-27.9l.5-1.5,6.9-14.3,8.6-13.2,10.3-11.8,12-10.2,13.4-8.5,14.5-6.5,15.3-4.6,15.7-2.4h15.9c0,0,15.8,2,15.8,2l15.2,4.4,14.6,6.4,13.4,8.4,12.1,10.1,10.5,11.8,8.8,13.1,7,14.3,5,15,2.9,15.6.8,15.8-.7,6.3c-.3,0-.6,0-1,0-17.5,0-22.8-7.7-38.6-7.7s-21.1,7.7-38.6,7.7-22.8-7.7-38.6-7.7-8.2.6-11.5,1.5l12.7,19.6c14.9.4,20.3,7.7,37.4,7.7s22.8-7.7,38.6-7.7,20.4,6.8,35.4,7.6l-.9,3.2-4,9.6c-11.6-1.8-17.4-7.1-30.5-7.1s-21.1,7.7-38.6,7.7-19.2-4.2-27.9-6.4l17.1,26.3c3.1.7,6.6,1.1,10.8,1.1,17.5,0,22.8-7.7,38.6-7.7s14.9,2.6,21.5,4.8h0s0,0,0,0c.1,0,.3,0,.4,0h11.9l.2-.4,6.4-14.3,5.6-14.6,3.8-15,1.4-15.4-.8-15.7h0Z"/>
</svg>