<?xml version="1.0" encoding="UTF-8"?>
<svg id="Layer_1" xmlns="http://www.w3.org/2000/svg" version="1.1" viewBox="0 0 500 500">
  <!-- Generator: Adobe Illustrator 29.3.1, SVG Export Plug-In . SVG Version: 2.1.0 Build 151)  -->
  <defs>
    <style>
      .st0 {
        fill: none;
      }

      .st1 {
        fill-rule: evenodd;
      }

      .st1, .st2 {
        fill: #a30075;
      }
    </style>
  </defs>
  <path id="path12043" class="st1" d="M261.2,392.3h196.7l-21.3,23.4-22.4,22.1-24.3,19.7-27.1,16.2-29.3,12.3-30.9,8.5-31.6,4.7-31.8.8-31.5-3.1-30.8-7-29.9-11-28.3-14.7-25.9-18.3-22.9-21.7-19.9-24.2-6.1-7.8h195.2M34.6,376.5l-13.8-28.4-11.7-29-7.5-30.5-3.2-31.6,1.2-31.9,5.4-31.4,9.3-30.5,13-29.1,16.5-27.1,19.9-24.9,22.8-22.1,25.5-19,27.8-15.9,29.6-12.1,31.1-8.4L232.5.3l32.4-.3,32.1,3.7,31.3,7.6,29.9,11.5,27.9,15.5,25.5,19.1,22.8,22.4,19.9,25.1,17,27.5,13.5,29.4,9.9,30.8,6.1,31.6,1.7,31.8-2.9,31.1-7.6,30.3-11.3,29.4-13,28.9-.4.9h-25.1l14.2-28.4,12.2-29,8.1-30.2,3.4-31.5-1.6-31.9-5.9-31.6-10.2-30.4-14.1-28.8-17.8-26.4-21.2-23.8-24.4-20.4-27.1-16.9-29.4-12.9-30.8-8.8-31.9-4.3-32.1.2-31.8,4.8-30.9,9.2-29.3,13.2-27,17.2-24.3,20.7-20.9,23.9-17.4,26.6-13.9,28.9-10.2,30.4-6,31.6-1.7,31.9,3.2,31.4,8.4,30.1,12.5,28.9,13.4,26.3h-23.6Z"/>
  <polygon class="st1" points="443 349 235.7 38 235.7 392.3 264.3 392.3 264.3 350 443 349"/>
  <path class="st0" d="M220,156"/>
  <path class="st2" d="M214,112L57,349.6h157c-12.9-66.4-15.4-143.2,0-237.6Z"/>
</svg>