<?xml version="1.0" encoding="UTF-8"?>
<svg id="Layer_1" xmlns="http://www.w3.org/2000/svg" version="1.1" viewBox="0 0 500 500">
  <!-- Generator: Adobe Illustrator 29.3.1, SVG Export Plug-In . SVG Version: 2.1.0 Build 151)  -->
  <defs>
    <style>
      .st0 {
        fill: none;
      }

      .st1 {
        fill: #a30075;
        fill-rule: evenodd;
      }
    </style>
  </defs>
  <path id="path12043" class="st1" d="M261.2,392.3h196.7l-21.3,23.4-22.4,22.1-24.3,19.7-27.1,16.2-29.3,12.3-30.9,8.5-31.6,4.7-31.8.8-31.5-3.1-30.8-7-29.9-11-28.3-14.7-25.9-18.3-22.9-21.7-19.9-24.2-6.1-7.8h195.2M34.6,376.5l-13.8-28.4-11.7-29-7.5-30.5-3.2-31.6,1.2-31.9,5.4-31.4,9.3-30.5,13-29.1,16.5-27.1,19.9-24.9,22.8-22.1,25.5-19,27.8-15.9,29.6-12.1,31.1-8.4L232.5.3l32.4-.3,32.1,3.7,31.3,7.6,29.9,11.5,27.9,15.5,25.5,19.1,22.8,22.4,19.9,25.1,17,27.5,13.5,29.4,9.9,30.8,6.1,31.6,1.7,31.8-2.9,31.1-7.6,30.3-11.3,29.4-13,28.9-.4.9h-25.1l14.2-28.4,12.2-29,8.1-30.2,3.4-31.5-1.6-31.9-5.9-31.6-10.2-30.4-14.1-28.8-17.8-26.4-21.2-23.8-24.4-20.4-27.1-16.9-29.4-12.9-30.8-8.8-31.9-4.3-32.1.2-31.8,4.8-30.9,9.2-29.3,13.2-27,17.2-24.3,20.7-20.9,23.9-17.4,26.6-13.9,28.9-10.2,30.4-6,31.6-1.7,31.9,3.2,31.4,8.4,30.1,12.5,28.9,13.4,26.3h-23.6.5Z"/>
  <path class="st0" d="M220,156"/>
  <path id="path20154" class="st1" d="M160.8,206.7l127.8,17.6c.4-3.7.8-7.4,1.2-11.2.4-3.7.9-7.4,1.5-11.1.3-1.8.6-3.7.9-5.5.3-1.8.6-3.7,1-5.5.5-2.8,1-5.7,1.5-8.5.6-2.8,1.4-5.6,2.5-8.3.7-1.9,1.6-3.7,2.6-5.4,1-1.7,2.2-3.3,3.6-4.8,1.5-1.5,3-2.9,4.7-4.2,1.7-1.3,3.2-2.7,4.7-4.1,1.6-1.6,3-3.4,4.2-5.3,1.2-1.9,2.1-4,2.7-6.2.6-1.8.9-3.7,1-5.7.1-1.9,0-3.8-.3-5.7-.3-1.9-.7-3.8-1.4-5.6-.7-1.8-1.6-3.5-2.6-5.1-.9-1.5-2-2.9-3.3-4.1-1.2-1.2-2.5-2.4-4-3.3-1.3-.9-2.7-1.7-4.2-2.4-1.5-.7-2.9-1.4-4.4-2-5.1-2.2-10.2-4.1-15.4-6-5.2-1.8-10.5-3.4-15.8-4.7-4-1-8-1.9-12.1-2.6s-8.2-1.2-12.3-1.6c-3.2-.3-6.4-.6-9.6-.8s-6.4-.3-9.6-.3c-7.4,0-14.7.3-22,1.2-7.3.8-14.5,2.2-21.6,4-4.9,1.2-9.7,2.6-14.5,4.3-4.8,1.6-9.5,3.4-14.2,5.3-2,.7-3.9,1.6-5.8,2.4-1.9.9-3.7,1.9-5.4,3.1-1.2.8-2.2,1.7-3.2,2.6-1,1-2,2-2.8,3.1-1.3,1.7-2.4,3.5-3.2,5.4-.9,1.9-1.5,3.9-1.8,6-.2,1.2-.4,2.4-.4,3.6,0,1.2,0,2.4,0,3.7.1,1.4.4,2.8.7,4.1.3,1.4.8,2.7,1.3,4,.6,1.5,1.3,2.9,2.2,4.2.8,1.3,1.8,2.5,2.9,3.7.4.4.7.7,1.1,1.1.4.4.8.7,1.2,1.1.4.3.9.7,1.3,1,.4.3.9.7,1.3,1,.5.4.9.8,1.4,1.1s.9.8,1.4,1.2c1.2,1.1,2.3,2.3,3.3,3.5s1.9,2.5,2.7,3.9c1,1.7,1.9,3.5,2.6,5.4.7,1.9,1.3,3.8,1.8,5.7.7,2.7,1.4,5.5,1.9,8.3.5,2.8,1,5.6,1.4,8.4l.8,5,.8,5h0Z"/>
  <path id="path20158" class="st1" d="M405.6,281.2l-261.6-36.1c-.4,0-.8-.1-1.2-.2-.4,0-.8-.2-1.2-.3-.5-.2-1-.3-1.5-.5-.5-.2-1-.4-1.4-.7-.6-.3-1.2-.7-1.7-1.1-.5-.4-1-.8-1.5-1.3-.5-.5-.9-.9-1.4-1.4-.4-.5-.8-1-1.1-1.6-.4-.6-.7-1.1-1-1.7-.3-.6-.5-1.2-.7-1.9-.2-.8-.4-1.5-.5-2.3-.1-.8-.2-1.6-.2-2.4,0-.9,0-1.9.3-2.8.2-.9.4-1.8.8-2.7.3-.7.6-1.5,1-2.1.4-.7.8-1.3,1.4-2,.7-.8,1.4-1.6,2.2-2.3.8-.7,1.7-1.3,2.7-1.7.6-.3,1.2-.6,1.8-.8.6-.2,1.3-.4,1.9-.6.5-.1,1-.2,1.6-.3.5,0,1.1,0,1.6,0s.8,0,1.2,0c.4,0,.8,0,1.2,0l257.4,35.5v31.1h0Z"/>
  <path class="st1" d="M310.2,376.6c-1.2-3.3-2.4-6.7-3.6-10.1-1.8-5.2-3.6-10.5-5.2-15.8-1.2-4.1-2.4-8.3-3.4-12.5-1.1-4.2-2-8.4-2.9-12.6-1.4-6.6-2.7-13.3-3.7-20-1-6.7-1.8-13.4-2.4-20.1-.2-2.4-.4-4.9-.6-7.4,0-1.1-.1-2.3-.2-3.4l-124.1-17.1c0,2.4-.1,4.9-.2,7.3-.1,3.7-.3,7.5-.5,11.3-.5,8.1-1.3,16.2-2.4,24.3-1.1,8.1-2.5,16.1-4.3,24.1-1.3,6.1-2.7,12.3-4.3,18.3-1.6,6.1-3.4,12-5.4,18-1.2,3.6-2.4,7.1-3.7,10.6-.6,1.7-1.3,3.3-1.9,5h168.9Z"/>
</svg>