<?xml version="1.0" encoding="UTF-8"?>
<svg id="Layer_1" xmlns="http://www.w3.org/2000/svg" version="1.1" viewBox="0 0 500 500">
  <!-- Generator: Adobe Illustrator 29.3.1, SVG Export Plug-In . SVG Version: 2.1.0 Build 151)  -->
  <defs>
    <style>
      .st0 {
        fill: #039;
      }

      .st1 {
        fill: none;
        stroke: #000;
        stroke-width: 11.3px;
      }
    </style>
  </defs>
  <g>
    <path class="st0" d="M325.5,236.6V0h-150v237c51.1,4.5,99,4.4,150-.3Z"/>
    <path class="st0" d="M248.9,251.5c-24.2,0-48.4-1.1-73.4-3.3v251.7h150v-252c-26.1,2.4-51.3,3.6-76.6,3.6Z"/>
  </g>
  <polygon class="st0" points="113.1 14 65.6 126.6 116.8 126.6 91.1 209.6 156.6 102 97.6 103.4 113.1 14"/>
  <path d="M248.9,240.2c-60.8,0-121.8-6.9-194.7-20.8-3.1-.6-5.1-3.5-4.5-6.6s3.5-5.1,6.6-4.5c144.3,27.5,241.2,27.5,384.1,0,3.1-.6,6,1.4,6.6,4.5s-1.4,6-4.5,6.6c-72.2,13.9-132.8,20.8-193.6,20.8Z"/>
  <path class="st1" d="M15.1,389.9"/>
  <g>
    <polygon points="65.6 300.2 54 213.9 44.8 300.2 65.6 300.2"/>
    <path d="M65.6,305.9h-20.8c-1.6,0-3.1-.7-4.2-1.9-1.1-1.2-1.6-2.8-1.4-4.4l9.2-86.3c.3-2.8,2.7-5,5.5-5.1,2.9,0,5.3,2.1,5.7,4.9l11.6,86.3c.2,1.6-.3,3.2-1.3,4.5s-2.6,1.9-4.3,1.9h0ZM51.1,294.6h8.1l-4.5-33.4-3.6,33.4Z"/>
  </g>
  <g>
    <polygon points="455.1 300.2 443.6 213.9 434.4 300.2 455.1 300.2"/>
    <path d="M455.1,305.9h-20.7c-1.6,0-3.1-.7-4.2-1.9-1.1-1.2-1.6-2.8-1.4-4.4l9.2-86.3c.3-2.8,2.7-5,5.5-5.1h0c2.8,0,5.2,2.1,5.6,4.9l11.5,86.3c.2,1.6-.3,3.2-1.3,4.5-1.1,1.2-2.6,1.9-4.3,1.9h0ZM440.7,294.6h8l-4.4-33.2-3.5,33.2h-.1Z"/>
  </g>
</svg>