<?xml version="1.0" encoding="UTF-8"?>
<svg id="Layer_1" xmlns="http://www.w3.org/2000/svg" version="1.1" viewBox="0 0 500 500">
  <!-- Generator: Adobe Illustrator 30.0.0, SVG Export Plug-In . SVG Version: 2.1.1 Build 123)  -->
  <defs>
    <style>
      .st0 {
        fill: #039;
      }

      .st1 {
        fill: #f9ff00;
      }
    </style>
  </defs>
  <rect class="st0" y="0" width="500" height="500"/>
  <polygon points="343.79 316.62 346.81 285.12 304.22 253.81 299.76 138.91 232.17 132.38 205.82 244.27 157.91 266.85 153.19 316.25 156.29 316.55 343.79 316.62"/>
  <polygon points="304.51 254.02 304.22 253.81 299.76 138.91 232.17 132.38 205.92 243.85 304.51 254.02"/>
  <polygon class="st1" points="301.99 196.45 219.09 187.9 205.92 243.85 304.51 254.02 304.22 253.81 301.99 196.45"/>
  <polygon points="268.7 118.75 268.7 118.75 304.32 74.44 242.87 68.1 268.7 118.75"/>
  <polygon points="279.2 16.88 279.2 16.88 243.58 61.19 305.03 67.53 279.2 16.88"/>
</svg>