<?xml version="1.0" encoding="UTF-8"?>
<svg id="Layer_1" xmlns="http://www.w3.org/2000/svg" version="1.1" viewBox="0 0 500 500">
  <!-- Generator: Adobe Illustrator 30.0.0, SVG Export Plug-In . SVG Version: 2.1.1 Build 123)  -->
  <defs>
    <style>
      .st0 {
        fill: #039;
      }

      .st1 {
        fill: #fff;
      }

      .st2 {
        fill: red;
      }

      .st3 {
        fill: #00c800;
      }
    </style>
  </defs>
  <rect class="st0" width="500" height="500"/>
  <path class="st3" d="M205.18,294.97h89.64c9.93-9.89,16.68-23.11,18.31-38.13,3.78-34.87-21.43-66.19-56.3-69.97s-66.19,21.43-69.97,56.3c-2.16,19.92,5.16,38.67,18.31,51.8Z"/>
  <path class="st1" d="M256.3,202.8"/>
  <path class="st2" d="M194.16,219.76l116.86,12.65c-2.56-8.87-7.02-17.01-12.95-23.89l-86.14-9.33c-7.27,5.45-13.37,12.44-17.77,20.56Z"/>
  <path class="st2" d="M188.8,266.93l117.36,12.71c3.34-6.32,5.65-13.3,6.7-20.75l-126.16-13.66c-.57,7.51.19,14.82,2.1,21.71Z"/>
</svg>