<?xml version="1.0" encoding="UTF-8"?>
<svg id="Layer_1" xmlns="http://www.w3.org/2000/svg" version="1.1" viewBox="0 0 500 500">
  <!-- Generator: Adobe Illustrator 29.3.1, SVG Export Plug-In . SVG Version: 2.1.0 Build 151)  -->
  <defs>
    <style>
      .st0 {
        fill: #fc0;
      }

      .st1 {
        fill: #039;
      }

      .st2 {
        fill: #80a080;
      }
    </style>
  </defs>
  <g>
    <path d="M250,0v200M250,500v-200"/>
    <path class="st1" d="M325,500h-150v-200h150v200ZM325,200h-150V0h150v200Z"/>
  </g>
  <rect y="228.8" width="500" height="42.5"/>
  <polygon class="st2" points="385.9 344.1 361.8 320 138.4 320 114.3 344.1 86 315.8 121.9 279.9 378.5 279.9 414.4 315.8 386.1 344.1 385.9 344.1"/>
  <polygon class="st2" points="378.3 220 121.7 220 85.8 184.1 114.1 155.8 138.2 179.9 361.6 179.9 385.7 155.8 414 184.1 378.1 220 378.3 220"/>
  <rect class="st0" y="237.1" width="500" height="25.5"/>
  <rect class="st1" x="175" y="79.9" width="150" height="200"/>
  <polygon class="st2" points="377.3 220 149 102.8 133.5 54.5 171.6 42.2 182 74.7 380.8 176.7 385.7 155.8 414 184.1 377.1 219.9 377.3 220"/>
</svg>