<?xml version="1.0" encoding="UTF-8"?>
<svg id="Layer_1" xmlns="http://www.w3.org/2000/svg" version="1.1" viewBox="0 0 500 500">
  <!-- Generator: Adobe Illustrator 29.3.1, SVG Export Plug-In . SVG Version: 2.1.0 Build 151)  -->
  <defs>
    <style>
      .st0 {
        fill: #039;
      }
    </style>
  </defs>
  <g>
    <path d="M250,0v200M250,500v-200"/>
    <path class="st0" d="M325,500h-150v-200h150v200ZM325,200h-150V0h150v200Z"/>
  </g>
  <path d="M473,268.5h-17v-36.9h17v36.9ZM427.4,268.5h-17v-36.9h17v36.9ZM381.8,268.5h-17v-36.9h17v36.9ZM336.2,268.5h-17v-36.9h17v36.9ZM290.6,268.5h-17v-36.9h17v36.9ZM245,268.5h-17v-36.9h17v36.9ZM199.4,268.5h-17v-36.9h17v36.9ZM153.8,268.5h-17v-36.9h17v36.9ZM108.2,268.5h-17v-36.9h17v36.9ZM62.6,268.5h-17v-36.9h17v36.9ZM17,268.5H0v-36.9h17v36.9Z"/>
  <rect y="244.4" width="500" height="11.3"/>
  <path d="M385.9,344.1l-24.1-24.1h-223.4l-24.1,24.1-28.3-28.3,35.9-35.9h256.6l35.9,35.9-28.3,28.3h-.2ZM378.3,220H121.7l-35.9-35.9,28.3-28.3,24.1,24.1h223.4l24.1-24.1,28.3,28.3-35.9,35.9h.2Z"/>
</svg>