<?xml version="1.0" encoding="UTF-8"?>
<svg id="Layer_1" xmlns="http://www.w3.org/2000/svg" version="1.1" viewBox="0 0 500 500">
  <!-- Generator: Adobe Illustrator 29.3.1, SVG Export Plug-In . SVG Version: 2.1.0 Build 151)  -->
  <defs>
    <style>
      .st0 {
        fill: #039;
      }

      .st1 {
        fill: #fff;
      }

      .st2 {
        fill: red;
      }
    </style>
  </defs>
  <rect class="st0" y="0" width="500" height="500"/>
  <g>
    <g>
      <circle class="st2" cx="270.9" cy="108.5" r="22"/>
      <polygon class="st1" points="344.3 335.9 347.3 304.4 304.7 273.1 300.2 158.2 232.6 151.7 206.3 263.6 158.4 286.2 153.7 335.6 156.8 335.9 344.3 335.9"/>
    </g>
    <g>
      <polygon class="st2" points="292.4 335.9 344.3 335.9 347.3 304.4 304.7 273.1 300.2 158.2 282.2 156.5 279.3 272.2 296 299.4 292.4 335.9"/>
      <polygon class="st2" points="249 335.9 252.9 295.3 255.3 269.9 266.4 155 251.8 153.6 227.9 266.3 201.6 290.3 197.2 335.9 249 335.9"/>
    </g>
  </g>
</svg>