<?xml version="1.0" encoding="UTF-8"?>
<svg id="Layer_1" xmlns="http://www.w3.org/2000/svg" version="1.1" viewBox="0 0 500 500">
  <!-- Generator: Adobe Illustrator 29.3.1, SVG Export Plug-In . SVG Version: 2.1.0 Build 151)  -->
  <defs>
    <style>
      .st0 {
        fill: #039;
      }

      .st1 {
        fill: #fff;
      }

      .st2 {
        fill: red;
      }
    </style>
  </defs>
  <rect class="st0" y="0" width="500" height="500"/>
  <g>
    <polygon class="st1" points="288.2 261.7 271.4 249.4 232.6 245.6 213.7 254.5 211.8 274 286.3 281.2 288.2 261.7"/>
    <polygon class="st1" points="269.6 204.1 242.9 201.5 231.2 251.5 271.6 255.4 269.6 204.1"/>
    <circle class="st2" cx="258" cy="184.5" r="8.7"/>
    <path class="st1" d="M256.3,202.8"/>
    <polygon class="st2" points="250.5 202.2 241.1 246.7 230.7 256.2 228.8 275.7 249.1 277.6 250.9 258.1 251.9 248.1 256.3 202.8 250.5 202.2"/>
    <polygon class="st2" points="269.6 204.1 271.4 249.4 288.2 261.7 286.3 281.2 266 279.2 267.9 259.8 261.4 249 262.5 203.4 269.6 204.1"/>
  </g>
  <rect class="st0" x="190" y="274.1" width="106.2" height="21.9"/>
</svg>