<?xml version="1.0" encoding="UTF-8"?>
<svg id="Layer_1" xmlns="http://www.w3.org/2000/svg" version="1.1" viewBox="0 0 500 500">
  <!-- Generator: Adobe Illustrator 29.3.1, SVG Export Plug-In . SVG Version: 2.1.0 Build 151)  -->
  <defs>
    <style>
      .st0 {
        fill: #039;
      }

      .st1 {
        fill: #fff;
      }

      .st2 {
        fill: #ac9393;
      }
    </style>
  </defs>
  <rect class="st0" x="200" width="100" height="500" transform="translate(500 500) rotate(180)"/>
  <polygon class="st1" points="188.6 128.5 250 165.2 311.4 128.5 311.4 334.6 250 371.3 188.6 334.6 188.6 128.5"/>
  <path class="st2" d="M163.3,335.2V120.5c0-15.8,17.2-25.6,30.8-17.5l56,33.5,56-33.5c13.6-8.1,30.8,1.7,30.8,17.5v214.7c0,7.2-3.8,13.8-9.9,17.5l-76.8,45.9-76.8-45.9c-6.1-3.7-9.9-10.3-9.9-17.5h-.2,0ZM191.4,330.8l58.6,35,58.6-35v-196.6l-58.6,35-58.6-35v196.6h0Z"/>
  <path d="M334.1,345.2l1.2-2.4c1-2.4,1.5-5,1.5-7.6v-21.2l-86.7,51.9-58.6-35h0l-28.1-16.8v21.2c0,3.1.7,6.1,2,8.8l.6,1.2c1.5,2.6,3.6,4.9,6.1,6.7.4.3.7.5,1.1.7l76.8,45.9,76.8-45.9c.4-.2.8-.5,1.1-.7,2.6-1.8,4.6-4.1,6.1-6.7h0Z"/>
  <path d="M306,103l-56,33.5-56-33.5c-12.7-7.6-28.5.5-30.6,14.4l86.5,51.7,86.5-51.7c-2-14-17.9-22-30.6-14.4h.2Z"/>
  <path d="M250,365.8"/>
</svg>