<?xml version="1.0" encoding="UTF-8"?>
<svg id="Layer_1" xmlns="http://www.w3.org/2000/svg" version="1.1" viewBox="0 0 500 500">
  <!-- Generator: Adobe Illustrator 30.1.0, SVG Export Plug-In . SVG Version: 2.1.1 Build 136)  -->
  <defs>
    <style>
      .st0 {
        fill: #039;
      }

      .st1 {
        fill: #f9ff00;
      }
    </style>
  </defs>
  <rect class="st0" x="100" y="100" width="300" height="300"/>
  <path class="st1" d="M350.04,188.9l-19.46-19.46c-3.06-3.06-8.03-3.06-11.1,0-3.06,3.06-3.06,8.03,0,11.1l19.46,19.46c.91.91,1.41,2.15,1.41,3.39v84.54c0,1.99-1.57,3.56-3.56,3.56s-3.56-1.57-3.56-3.56v-36.1c0-13.66-10.27-25.01-23.52-26.66v-58.87c0-12.83-10.43-23.27-23.27-23.27h-87.02c-12.83,0-23.27,10.43-23.27,23.27v152.19c-4.14,2.15-6.96,6.46-6.96,11.43v18.05c0,7.12,5.8,12.92,12.92,12.92h121.47c7.12,0,12.92-5.8,12.92-12.92v-18.05c0-4.97-2.82-9.27-6.96-11.43v-77.34c4.55,1.41,7.87,5.71,7.87,10.68v36.1c0,10.6,8.61,19.29,19.29,19.29s19.29-8.61,19.29-19.29v-84.54c0-5.46-2.15-10.6-5.96-14.49h0Z"/>
  <path class="st0" d="M199.67,175.98c0-5.46,4.39-9.85,9.85-9.85h66.66c5.46,0,9.85,4.39,9.85,9.85v36.35c0,5.46-4.39,9.85-9.85,9.85h-66.66c-5.46,0-9.85-4.39-9.85-9.85v-36.35h0Z"/>
</svg>