<?xml version="1.0" encoding="UTF-8"?>
<svg id="Layer_1" xmlns="http://www.w3.org/2000/svg" version="1.1" viewBox="0 0 500 500">
  <!-- Generator: Adobe Illustrator 30.1.0, SVG Export Plug-In . SVG Version: 2.1.1 Build 136)  -->
  <defs>
    <style>
      .st0 {
        fill: #f9ff00;
      }
    </style>
  </defs>
  <path class="st0" d="M381.2,175.8l-23.5-23.5c-3.7-3.7-9.7-3.7-13.4,0-3.7,3.7-3.7,9.7,0,13.4l23.5,23.5c1.1,1.1,1.7,2.6,1.7,4.1v102.1c0,2.4-1.9,4.3-4.3,4.3s-4.3-1.9-4.3-4.3v-43.6c0-16.5-12.4-30.2-28.4-32.2v-71.1c0-15.5-12.6-28.1-28.1-28.1h-105.1c-15.5,0-28.1,12.6-28.1,28.1v183.8c-5,2.6-8.4,7.8-8.4,13.8v21.8c0,8.6,7,15.6,15.6,15.6h146.7c8.6,0,15.6-7,15.6-15.6v-21.8c0-6-3.4-11.2-8.4-13.8v-93.4c5.5,1.7,9.5,6.9,9.5,12.9v43.6c0,12.8,10.4,23.3,23.3,23.3s23.3-10.4,23.3-23.3v-102.1c0-6.6-2.6-12.8-7.2-17.5h0Z"/>
  <path d="M199.6,160.2c0-6.6,5.3-11.9,11.9-11.9h80.5c6.6,0,11.9,5.3,11.9,11.9v43.9c0,6.6-5.3,11.9-11.9,11.9h-80.5c-6.6,0-11.9-5.3-11.9-11.9v-43.9h0Z"/>
</svg>