<?xml version="1.0" encoding="UTF-8"?>
<svg id="Layer_1" data-name="Layer 1" xmlns="http://www.w3.org/2000/svg" viewBox="0 0 504.1 501.07">
  <defs>
    <style>
      .cls-1 {
        fill-rule: evenodd;
      }

      .cls-1, .cls-2 {
        fill: #a30075;
      }
    </style>
  </defs>
  <polygon class="cls-1" points="268.86 .35 265.94 0 233.92 .65 202.06 5.45 170.95 14.15 141.06 26.67 113.06 42.75 87.44 62.28 64.61 84.67 44.88 109.9 28.45 137.12 15.7 166.2 6.68 196.77 1.65 228.1 .61 259.96 3.53 291.71 10.39 322.82 21.34 352.81 36.24 380.86 54.71 406.26 76.51 428.69 100.02 449.76 99.59 450.05 121.44 441.13 99.09 421.84 76.6 399.81 57.45 375.12 42.62 347.25 32.14 317.08 25.75 285.55 23.7 253.55 25.65 221.54 31.71 190.34 42.02 160.31 56.7 131.97 75.2 105.84 97.33 82.54 122.47 62.35 150.09 45.89 179.74 33.57 210.9 25.49 242.74 22 268.86 22.68 268.86 .35"/>
  <path class="cls-2" d="M502.4,225.27l-6.1-31.6-9.9-30.8-13.5-29.4-17-27.5-19.9-25.1-22.8-22.4-25.5-19.1-27.9-15.5-29.9-11.5-31.3-7.6-32.1-3.7-32.4.3-32,4.3-31.1,8.4-29.6,12.1-27.8,15.9-25.5,19-22.8,22.1-19.9,24.9-16.5,27.1-13,29.1-9.3,30.5-5.4,31.4-1.2,31.9,3.2,31.6,7.5,30.5,11.7,29,11.45,23.56,2.39,8.12,17.55,12.42h-8.29l6.1,7.8,19.9,24.2,22.9,21.7,25.9,18.3,28.3,14.7,29.9,11,30.8,7,31.5,3.1,31.8-.8,31.6-4.7,30.9-8.5,29.3-12.3,27.1-16.2,24.3-19.7,22.4-22.1,21.3-23.4h-170.74l-107.85-166.35-10.28-15.85c-16.6-25.6-45.03-41.05-75.53-41.05h-56.41l1.02-3.05,13.9-28.9,17.4-26.6,20.9-23.9,24.3-20.7,27-17.2,29.3-13.2,30.9-9.2,31.8-4.8,32.1-.2,31.9,4.3,30.8,8.8,29.4,12.9,27.1,16.9,24.4,20.4,21.2,23.8,17.8,26.4,14.1,28.8,10.2,30.4,5.9,31.6,1.6,31.9-1.37,12.71c-.65.01-1.3.02-1.96.02-35.36,0-46.01-15.54-77.95-15.54s-42.59,15.54-77.95,15.54-46.01-15.54-77.95-15.54c-9.13,0-16.52,1.27-23.24,3.08l25.64,39.55c30.1.76,41.09,15.5,75.55,15.5s46.01-15.54,77.95-15.54c29.93,0,41.16,13.64,71.55,15.36l-1.76,6.55-8.14,19.34c-23.35-3.67-35.21-14.3-61.65-14.3-31.95,0-42.59,15.54-77.95,15.54-26.09,0-38.73-8.45-56.38-12.88l34.5,53.2c6.29,1.37,13.37,2.28,21.89,2.28,35.36,0,46.01-15.54,77.95-15.54,18.68,0,30.08,5.31,43.4,9.72,0,0,0,0,0,0l-.02.04h.2c.27.05.56.05.88,0h24.01l.4-.9,13-28.9,11.3-29.4,7.6-30.3,2.9-31.1-1.7-31.8Z"/>
</svg>