<?xml version="1.0" encoding="UTF-8"?>
<svg id="Layer_1" xmlns="http://www.w3.org/2000/svg" version="1.1" viewBox="0 0 500 500">
  <!-- Generator: Adobe Illustrator 29.3.1, SVG Export Plug-In . SVG Version: 2.1.0 Build 151)  -->
  <defs>
    <style>
      .st0 {
        fill: #fff;
      }

      .st1 {
        fill: red;
      }
    </style>
  </defs>
  <circle class="st1" cx="270.4" cy="147" r="22"/>
  <path class="st0" d="M265.9,193.5"/>
  <polygon class="st0" points="343.8 374.4 346.8 342.9 304.2 311.6 299.7 196.7 232.1 190.2 205.8 302.1 157.9 324.7 153.2 374.1 156.3 374.4 343.8 374.4"/>
  <g>
    <polygon class="st1" points="291.9 374.4 343.8 374.4 346.8 342.9 304.2 311.6 299.7 196.7 281.7 195 278.8 310.7 295.5 337.9 291.9 374.4"/>
    <polygon class="st1" points="248.5 374.4 252.4 333.8 254.8 308.4 265.9 193.5 251.3 192.1 227.4 304.8 201.1 328.8 196.7 374.4 248.5 374.4"/>
  </g>
</svg>