<?xml version="1.0" encoding="UTF-8"?>
<svg id="Layer_1" xmlns="http://www.w3.org/2000/svg" version="1.1" viewBox="0 0 500 500">
  <!-- Generator: Adobe Illustrator 29.3.1, SVG Export Plug-In . SVG Version: 2.1.0 Build 151)  -->
  <defs>
    <style>
      .st0 {
        fill: none;
      }

      .st1 {
        fill-rule: evenodd;
      }

      .st1, .st2 {
        fill: #a30075;
      }
    </style>
  </defs>
  <path id="path12043" class="st1" d="M254.5,319.3h96.9l-10.5,11.6-11,10.9-12,9.8-13.3,8-14.4,6.1-15.2,4.2-15.6,2.3-15.7.4-15.5-1.5-15.2-3.5-14.7-5.4-13.9-7.3-12.8-9.1-11.3-10.7-9.8-12-3-3.9h96.2M142.8,311.4l-6.8-14.1-5.8-14.4-3.7-15.1-1.6-15.6.6-15.8,2.7-15.5,4.6-15.1,6.4-14.4,8.1-13.4,9.8-12.3,11.2-10.9,12.6-9.4,13.7-7.9,14.6-6,15.3-4.2,15.8-2.1h16c0-.1,15.8,1.7,15.8,1.7l15.4,3.8,14.7,5.7,13.7,7.7,12.6,9.5,11.2,11.1,9.8,12.4,8.4,13.6,6.7,14.6,4.9,15.3,3,15.6.8,15.7-1.4,15.4-3.7,15-5.6,14.6-6.4,14.3-.2.4h-12.4l7-14.1,6-14.4,4-15,1.7-15.6-.8-15.8-2.9-15.6-5-15.1-6.9-14.3-8.8-13.1-10.4-11.8-12-10.1-13.3-8.4-14.5-6.4-15.2-4.4-15.7-2.1h-15.8c0,0-15.7,2.5-15.7,2.5l-15.2,4.6-14.4,6.5-13.3,8.5-12,10.3-10.3,11.8-8.6,13.2-6.8,14.3-5,15.1-3,15.6-.8,15.8,1.6,15.5,4.1,14.9,6.2,14.3,6.6,13h-11.6.2Z"/>
  <polygon class="st1" points="344 297.8 241.9 143.8 241.9 319.3 256 319.3 256 298.3 344 297.8"/>
  <path class="st0" d="M234.2,202.3"/>
  <path class="st2" d="M231.2,180.5l-77.3,117.7h77.3c-6.4-32.9-7.6-70.9,0-117.7Z"/>
</svg>