<?xml version="1.0" encoding="UTF-8"?>
<svg id="Layer_1" xmlns="http://www.w3.org/2000/svg" version="1.1" viewBox="0 0 500 500">
  <!-- Generator: Adobe Illustrator 29.3.1, SVG Export Plug-In . SVG Version: 2.1.0 Build 151)  -->
  <defs>
    <style>
      .st0 {
        fill: #f6000e;
      }

      .st1 {
        fill: #fff;
      }
    </style>
  </defs>
  <rect id="rect1307" class="st1" x="123.7" y="123.2" width="253.6" height="253.6"/>
  <rect id="rect1314" class="st0" x="123.7" y="123.2" width="25.4" height="253.6"/>
  <rect id="rect2189" class="st0" x="351.9" y="123.2" width="25.4" height="253.6"/>
  <rect id="rect2191" class="st0" x="123.7" y="351.4" width="253.6" height="25.4"/>
  <rect id="rect2193" class="st0" x="123.7" y="123.2" width="253.6" height="25.4"/>
  <rect id="rect1315" class="st0" x="237.8" y="93.8" width="25.4" height="312.4" transform="translate(-103.4 250.4) rotate(-45)"/>
  <path id="text1327" d="M200.6,319.3v-138.6h44.9c17,0,28.1.7,33.3,2.1,7.9,2.1,14.6,6.6,19.9,13.6,5.4,6.9,8,15.9,8,26.9,0,8.5-1.5,15.7-4.6,21.5-3.1,5.8-7,10.4-11.8,13.7-4.7,3.3-9.5,5.5-14.5,6.5-6.7,1.3-16.4,2-29,2h-18.2v52.3h-28M228.6,204.2v39.3h15.3c11,0,18.4-.7,22.1-2.2,3.7-1.4,6.6-3.7,8.7-6.8,2.1-3.1,3.2-6.7,3.2-10.8,0-5-1.5-9.2-4.4-12.5-3-3.3-6.7-5.3-11.2-6.1-3.3-.6-10.1-.9-20.1-.9h-13.5"/>
</svg>