<?xml version="1.0" encoding="UTF-8"?>
<svg id="Layer_1" xmlns="http://www.w3.org/2000/svg" version="1.1" viewBox="0 0 500 500">
  <!-- Generator: Adobe Illustrator 30.1.0, SVG Export Plug-In . SVG Version: 2.1.1 Build 136)  -->
  <defs>
    <style>
      .st0 {
        stroke-width: 3px;
      }

      .st0, .st1, .st2, .st3, .st4, .st5 {
        stroke: #000;
      }

      .st6 {
        fill: #f6000e;
      }

      .st1 {
        stroke-miterlimit: 4;
        stroke-width: 3px;
      }

      .st7, .st4 {
        fill: #fff;
      }

      .st2, .st3, .st4 {
        fill-rule: evenodd;
      }

      .st2, .st5 {
        stroke-width: 3px;
      }

      .st3 {
        stroke-width: 3px;
      }

      .st5 {
        fill: none;
      }
    </style>
  </defs>
  <rect id="rect1307" class="st7" x="124.84" y="124.38" width="252.42" height="252.42"/>
  <rect id="rect1314" class="st6" x="124.84" y="124.38" width="25.24" height="252.42"/>
  <rect id="rect2189" class="st6" x="352.02" y="124.38" width="25.24" height="252.42"/>
  <rect id="rect2191" class="st6" x="124.84" y="351.56" width="252.42" height="25.24"/>
  <rect id="rect2193" class="st6" x="124.84" y="124.38" width="252.42" height="25.24"/>
  <rect id="rect1315" class="st6" x="238.43" y="95.13" width="25.24" height="310.93" transform="translate(-103.66 250.92) rotate(-45)"/>
  <g id="g2211">
    <path id="path1324" class="st5" d="M176.98,289.4h126.21v25.24"/>
    <path id="rect2199" class="st2" d="M243.18,237.02h28.3l10.73,50.48h-49.76l10.73-50.48Z"/>
    <path id="path2202" class="st3" d="M294.28,211.78c0,13.93-24.39,37.86-36.95,37.86-11.77,0-36.95-23.93-36.95-37.86s16.55-25.24,36.95-25.24,36.95,11.31,36.95,25.24Z"/>
    <rect id="rect2205" class="st0" x="233.7" y="251.54" width="42.58" height="3.95" rx=".5" ry=".5"/>
    <rect id="rect2207" class="st1" x="298.93" y="232.25" width="3.95" height="48.32" transform="translate(10.13 524.25) rotate(-83.08)"/>
    <path id="path2209" class="st4" d="M232.65,197.04c-10.65,4.02-12.79,16.64-5.18,24.54-.75-8.18.02-16.36,5.18-24.54Z"/>
  </g>
</svg>