<?xml version="1.0" encoding="UTF-8"?>
<svg id="Layer_1" xmlns="http://www.w3.org/2000/svg" version="1.1" viewBox="0 0 500 500">
  <!-- Generator: Adobe Illustrator 29.3.1, SVG Export Plug-In . SVG Version: 2.1.0 Build 151)  -->
  <defs>
    <style>
      .st0 {
        fill: #f6000e;
      }

      .st1 {
        fill: #010101;
        fill-rule: evenodd;
      }

      .st2 {
        fill: #fff;
      }
    </style>
  </defs>
  <rect id="rect1307" class="st2" x="123.7" y="123.2" width="253.6" height="253.6"/>
  <rect id="rect1314" class="st0" x="123.7" y="123.2" width="25.4" height="253.6"/>
  <rect id="rect2189" class="st0" x="351.9" y="123.2" width="25.4" height="253.6"/>
  <rect id="rect2191" class="st0" x="123.7" y="351.4" width="253.6" height="25.4"/>
  <rect id="rect2193" class="st0" x="123.7" y="123.2" width="253.6" height="25.4"/>
  <rect id="rect1315" class="st0" x="237.8" y="93.8" width="25.4" height="312.4" transform="translate(-103.4 250.4) rotate(-45)"/>
  <g id="g2224">
    <g id="g2220">
      <path id="path1336" class="st1" d="M250.5,176.7c-16.3,21.3-39,12.7-58.3,31.1-4.9,4.6-6.1-1.1-8.7-5.7-6.6,14.8-4.1,29.6-4,44.4,6.5-10.6,15.3-18,25.4-23.8-10,.4-7.5-6.2-5.2-7.9,14.6-11.2,30-14.2,37.7-7.3,5.5,4.9,5.5,13.9,5.5,32.7v52.6h-12.7v10.8h20.1l4-12.7v-96.8l-3.8-17.3Z"/>
      <path id="path2213" class="st1" d="M250.5,176.7c16.3,21.3,39,12.7,58.3,31.1,4.9,4.6,6.1-1.1,8.7-5.7,6.6,14.8,4.1,29.6,4,44.4-6.5-10.6-15.3-18-25.4-23.8,10,.4,7.5-6.2,5.2-7.9-14.6-11.2-30-14.2-37.7-7.3-5.5,4.9-5.5,13.9-5.5,32.7v52.6h12.7v10.8h-20.1l-4-12.7v-96.8l3.8-17.3Z"/>
    </g>
    <path id="path2215" class="st1" d="M249.9,300.9c-5.9.3-10.6,5.2-10.6,11.2s5,11.2,11.2,11.2,11.2-5,11.2-11.2-5-11.2-11.2-11.2-.4,0-.6,0ZM250,303.8c.2,0,.3,0,.5,0,4.6,0,8.3,3.7,8.3,8.3s-3.7,8.3-8.3,8.3-8.3-3.7-8.3-8.3,3.5-8,7.8-8.3Z"/>
  </g>
</svg>