<?xml version="1.0" encoding="UTF-8"?>
<svg id="Layer_1" xmlns="http://www.w3.org/2000/svg" version="1.1" viewBox="0 0 500 500">
  <!-- Generator: Adobe Illustrator 30.1.0, SVG Export Plug-In . SVG Version: 2.1.1 Build 136)  -->
  <defs>
    <style>
      .st0 {
        fill: #f6000e;
      }

      .st1 {
        fill: #fff;
      }
    </style>
  </defs>
  <rect id="rect1307" class="st1" x="124.84" y="124.38" width="252.42" height="252.42"/>
  <rect id="rect1314" class="st0" x="352.02" y="124.38" width="25.24" height="252.42"/>
  <rect id="rect2189" class="st0" x="124.84" y="124.38" width="25.24" height="252.42"/>
  <rect id="rect2191" class="st0" x="124.84" y="351.56" width="252.42" height="25.24"/>
  <rect id="rect2193" class="st0" x="124.84" y="124.38" width="252.42" height="25.24"/>
  <path id="text1310" d="M228.29,296.74h-17.62v-66.4c-6.44,6.02-14.02,10.47-22.76,13.35v-15.99c4.6-1.5,9.59-4.35,14.98-8.53,5.39-4.22,9.09-9.13,11.1-14.73h14.3v92.29M314.19,280.37v16.36h-61.76c.67-6.19,2.68-12.04,6.02-17.56,3.34-5.56,9.95-12.92,19.81-22.07,7.94-7.4,12.81-12.41,14.61-15.05,2.42-3.64,3.64-7.23,3.64-10.78,0-3.93-1.07-6.94-3.2-9.03-2.09-2.13-4.99-3.2-8.72-3.2-3.68,0-6.6,1.11-8.78,3.32-2.17,2.22-3.43,5.89-3.76,11.03l-17.56-1.76c1.04-9.7,4.33-16.66,9.84-20.88,5.52-4.22,12.41-6.33,20.69-6.33,9.07,0,16.2,2.45,21.38,7.34,5.18,4.89,7.77,10.97,7.77,18.25,0,4.14-.75,8.09-2.26,11.85-1.46,3.72-3.8,7.63-7.02,11.72-2.13,2.72-5.98,6.63-11.54,11.72-5.56,5.1-9.09,8.49-10.6,10.16-1.46,1.67-2.65,3.3-3.57,4.89h34.99"/>
</svg>