<?xml version="1.0" encoding="UTF-8"?>
<svg id="svg2" xmlns="http://www.w3.org/2000/svg" xmlns:svg="http://www.w3.org/2000/svg" xmlns:sodipodi="http://sodipodi.sourceforge.net/DTD/sodipodi-0.dtd" xmlns:rdf="http://www.w3.org/1999/02/22-rdf-syntax-ns#" xmlns:inkscape="http://www.inkscape.org/namespaces/inkscape" xmlns:dc="http://purl.org/dc/elements/1.1/" xmlns:cc="http://creativecommons.org/ns#" version="1.1" viewBox="0 0 500 500">
  <!-- Generator: Adobe Illustrator 30.0.0, SVG Export Plug-In . SVG Version: 2.1.1 Build 123)  -->
  <defs>
    <style>
      .st0 {
        fill: #713907;
      }

      .st1 {
        fill: #fff;
      }
    </style>
  </defs>
  <path id="path14" class="st0" d="M100,400h300V100H100v300Z" inkscape:connector-curvature="0"/>
  <g>
    <path class="st1" d="M370.83,218.53c-26.17-45.72-70.52-75.79-120.83-75.79s-94.66,30.07-120.83,75.79c-.7,1.22-2.09,4.23-2.17,7.21-.08,2.99,1.17,5.97,1.81,7.09,26.13,46.07,70.65,76.42,121.19,76.42s95.06-30.35,121.19-76.42c.64-1.13,1.89-4.1,1.81-7.09-.07-2.99-1.47-5.99-2.17-7.21ZM250,282.36c-30.77,0-55.72-24.95-55.72-55.72s24.95-55.72,55.72-55.72,55.72,24.95,55.72,55.72-24.95,55.72-55.72,55.72Z"/>
    <path class="st1" d="M250,189.67c-6.07,0-11.72,1.61-16.77,4.2l13.61,30.85-31.36-11.03c-1.52,4.04-2.45,8.37-2.45,12.94,0,20.41,16.56,36.97,36.97,36.97s36.97-16.56,36.97-36.97-16.56-36.97-36.97-36.97Z"/>
  </g>
  <path class="st1" d="M400,368.28c-13.26,0-20.29-5.9-25.93-10.64-5.09-4.27-8.76-7.36-16.93-7.36s-11.84,3.09-16.93,7.36c-5.64,4.74-12.67,10.64-25.93,10.64s-20.29-5.9-25.93-10.64c-5.09-4.27-8.76-7.36-16.93-7.36s-11.84,3.09-16.93,7.36c-5.64,4.74-12.67,10.64-25.93,10.64s-20.29-5.9-25.93-10.64c-5.09-4.27-8.76-7.36-16.93-7.36s-11.84,3.09-16.93,7.36c-5.64,4.74-12.67,10.64-25.93,10.64s-20.28-5.9-25.92-10.64c-5.09-4.27-8.76-7.36-16.93-7.36v-14c13.27,0,20.29,5.9,25.93,10.64,5.08,4.27,8.76,7.36,16.92,7.36s11.83-3.09,16.92-7.36c5.65-4.74,12.67-10.64,25.94-10.64s20.29,5.9,25.93,10.64c5.09,4.27,8.76,7.36,16.93,7.36s11.84-3.09,16.93-7.36c5.64-4.74,12.67-10.64,25.93-10.64s20.29,5.9,25.93,10.64c5.09,4.27,8.76,7.36,16.93,7.36s11.84-3.09,16.93-7.36c5.64-4.74,12.67-10.64,25.93-10.64s20.29,5.9,25.93,10.64c5.09,4.27,8.76,7.36,16.93,7.36v14Z"/>
</svg>