<?xml version="1.0" encoding="UTF-8"?>
<svg id="svg2" xmlns="http://www.w3.org/2000/svg" xmlns:svg="http://www.w3.org/2000/svg" xmlns:sodipodi="http://sodipodi.sourceforge.net/DTD/sodipodi-0.dtd" xmlns:rdf="http://www.w3.org/1999/02/22-rdf-syntax-ns#" xmlns:inkscape="http://www.inkscape.org/namespaces/inkscape" xmlns:dc="http://purl.org/dc/elements/1.1/" xmlns:cc="http://creativecommons.org/ns#" version="1.1" viewBox="0 0 500 500">
  <!-- Generator: Adobe Illustrator 30.0.0, SVG Export Plug-In . SVG Version: 2.1.1 Build 123)  -->
  <defs>
    <style>
      .st0 {
        fill: #713907;
      }

      .st1 {
        fill: #fff;
      }
    </style>
  </defs>
  <path id="path14" class="st0" d="M100,400h300V100H100v300Z" inkscape:connector-curvature="0"/>
  <polygon class="st1" points="298.3 178 298.5 213.3 267.5 213.3 267.5 178 256.6 178 243.4 178 232.5 178 232.5 213.3 201.5 213.3 201.7 178 183.8 178 170.7 178 135 336 365 336 329.3 178 298.3 178"/>
  <g>
    <path class="st0" d="M306.19,387.31c-34.98,0-67.4-20.34-86.73-54.41-.36-.62-2.19-4.05-2.08-8.21.1-3.79,1.81-7.05,2.33-7.96,19.34-33.79,51.67-53.96,86.47-53.96s67.13,20.17,86.47,53.96c.52.91,2.24,4.19,2.33,7.97.11,4.11-1.71,7.53-2.07,8.18-19.33,34.07-51.75,54.41-86.73,54.41Z"/>
    <g>
      <path class="st1" d="M375.01,320.79c-14.91-26.04-40.16-43.17-68.82-43.17s-53.91,17.13-68.82,43.17c-.4.69-1.19,2.41-1.24,4.11-.05,1.7.67,3.4,1.03,4.04,14.88,26.24,40.24,43.53,69.02,43.53s54.14-17.29,69.02-43.53c.36-.64,1.08-2.34,1.03-4.04-.04-1.7-.84-3.41-1.24-4.11ZM306.19,357.14c-17.53,0-31.74-14.21-31.74-31.74s14.21-31.74,31.74-31.74,31.74,14.21,31.74,31.74-14.21,31.74-31.74,31.74Z"/>
      <path class="st1" d="M306.19,304.35c-3.46,0-6.68.92-9.55,2.39l7.75,17.57-17.86-6.28c-.87,2.3-1.4,4.77-1.4,7.37,0,11.62,9.43,21.06,21.06,21.06s21.06-9.43,21.06-21.06-9.43-21.06-21.06-21.06h0Z"/>
    </g>
  </g>
</svg>