<?xml version="1.0" encoding="UTF-8"?>
<svg id="Layer_1" xmlns="http://www.w3.org/2000/svg" version="1.1" viewBox="0 0 500 500">
  <!-- Generator: Adobe Illustrator 29.3.1, SVG Export Plug-In . SVG Version: 2.1.0 Build 151)  -->
  <defs>
    <style>
      .st0 {
        font-family: RobotoCondensed-Medium, 'Roboto Condensed';
        font-size: 227.6px;
        font-weight: 500;
      }
    </style>
  </defs>
  <text class="st0" transform="translate(54 347.1)"><tspan x="0" y="0">24,2</tspan></text>
  <path d="M455.7,0H44.3C19.8,0,0,19.8,0,44.3h0v411.4h0c0,24.5,19.8,44.3,44.3,44.3h411.4c24.5,0,44.3-19.8,44.3-44.3h0V44.3h0c0-24.5-19.8-44.3-44.3-44.3h0ZM411.4,455.7H88.6c-24.5,0-44.3-19.8-44.3-44.3V88.6c0-24.5,19.8-44.3,44.3-44.3h322.9c24.5,0,44.3,19.8,44.3,44.3v322.9c0,24.5-19.8,44.3-44.3,44.3Z"/>
  <path d="M220.8,115.4l-68.3-71.2h195l-68.3,71.2c-15.9,16.6-42.5,16.6-58.4,0Z"/>
</svg>