<?xml version="1.0" encoding="UTF-8"?>
<svg id="Layer_1" xmlns="http://www.w3.org/2000/svg" version="1.1" viewBox="0 0 500 500">
  <!-- Generator: Adobe Illustrator 30.0.0, SVG Export Plug-In . SVG Version: 2.1.1 Build 123)  -->
  <defs>
    <style>
      .st0 {
        isolation: isolate;
      }

      .st1 {
        fill: #f9ff00;
      }
    </style>
  </defs>
  <path class="st1" d="M455.7,0H44.3C19.8,0,0,19.8,0,44.3h0v411.4h0c0,24.5,19.8,44.3,44.3,44.3h411.4c24.5,0,44.3-19.8,44.3-44.3h0V44.3h0C500,19.8,480.2,0,455.7,0h0Z"/>
  <g class="st0">
    <g class="st0">
      <g class="st0">
        <g class="st0">
          <path d="M238.46,378.96c-16.92,0-31.94-3.33-45.05-9.97-13.11-6.64-23.72-15.77-31.81-27.37-8.1-11.6-13.17-24.77-15.23-39.52h47.86c2.42,10.39,7.4,18.82,14.96,25.29,7.55,6.47,17.31,9.7,29.28,9.7,12.57,0,23.2-3.68,31.9-11.06,8.7-7.37,15.32-17.95,19.85-31.72,4.53-13.78,6.8-30.27,6.8-49.49h-1.81c-4.35,7.73-9.94,14.38-16.77,19.94-6.83,5.56-14.53,9.85-23.11,12.87-8.58,3.02-17.77,4.53-27.55,4.53-15.71,0-29.94-3.78-42.69-11.33-12.75-7.55-22.81-17.97-30.18-31.27-7.37-13.29-11.06-28.4-11.06-45.32,0-17.76,4.11-33.72,12.33-47.86,8.22-14.14,19.64-25.26,34.26-33.35,14.62-8.09,31.66-12.02,51.12-11.78,12.81,0,25.29,2.24,37.43,6.71,12.14,4.47,23.11,11.72,32.9,21.75,9.79,10.03,17.58,23.42,23.38,40.15,5.8,16.74,8.7,37.5,8.7,62.27,0,23.2-2.45,43.87-7.34,62-4.89,18.13-11.96,33.51-21.21,46.13-9.25,12.63-20.37,22.24-33.35,28.82-12.99,6.58-27.52,9.88-43.6,9.88ZM240.63,245c7.25,0,13.99-1.39,20.21-4.17,6.22-2.78,11.63-6.59,16.22-11.42,4.59-4.83,8.19-10.39,10.79-16.68,2.6-6.28,3.9-12.99,3.9-20.12,0-9.3-2.17-17.88-6.53-25.74-4.35-7.85-10.3-14.17-17.86-18.94-7.55-4.77-16.22-7.16-26.01-7.16s-18.1,2.33-25.65,6.98c-7.55,4.65-13.57,10.94-18.04,18.85-4.47,7.92-6.71,16.77-6.71,26.56s2.18,18.43,6.53,26.28c4.35,7.86,10.24,14.08,17.67,18.67,7.43,4.59,15.92,6.89,25.47,6.89Z"/>
        </g>
      </g>
    </g>
  </g>
</svg>