<?xml version="1.0" encoding="UTF-8"?>
<svg id="Layer_1" xmlns="http://www.w3.org/2000/svg" version="1.1" viewBox="0 0 500 500">
  <!-- Generator: Adobe Illustrator 29.3.1, SVG Export Plug-In . SVG Version: 2.1.0 Build 151)  -->
  <defs>
    <style>
      .st0 {
        fill: #007200;
      }

      .st1 {
        fill: #fff;
      }
    </style>
  </defs>
  <path class="st0" d="M455.7,0H44.3C19.8,0,0,19.8,0,44.3h0v411.4h0c0,24.5,19.8,44.3,44.3,44.3h411.4c24.5,0,44.3-19.8,44.3-44.3h0V44.3h0c0-24.5-19.8-44.3-44.3-44.3h0Z"/>
  <g>
    <path class="st1" d="M184.2,374.4h-52.1v-142.5c0-3.9,0-8.7.2-14.5.1-5.7.3-11.7.5-17.9.2-6.2.5-11.7.7-16.6-1.2,1.4-3.6,3.9-7.4,7.4-3.8,3.6-7.3,6.7-10.5,9.5l-28.3,22.8-25.2-31.4,79.4-63.1h42.8v246.3Z"/>
    <path class="st1" d="M251.1,269.9c0-14.3,1-28.3,3.1-42.1,2.1-13.8,5.7-26.9,10.9-39.2,5.2-12.3,12.4-23.2,21.7-32.8,9.3-9.5,21.2-17,35.5-22.4,14.4-5.4,31.8-8.1,52.3-8.1s10.5.2,16.9.5c6.4.3,11.8,1,16.2,1.9v41.7c-4.4-1.1-9.1-2-14.3-2.6-5.2-.6-10.3-.9-15.4-.9-15.4,0-28.1,1.8-38.1,5.5-10,3.7-17.9,9-23.6,15.9-5.8,6.9-10,15-12.6,24.3-2.6,9.3-4.2,19.7-4.7,31.2h2.1c3.2-5.5,7.2-10.4,11.9-14.7,4.7-4.3,10.5-7.6,17.4-10.2,6.9-2.5,14.9-3.8,24.2-3.8,14.5,0,27,3.1,37.4,9.1,10.5,6.1,18.6,15,24.3,26.6,5.7,11.6,8.6,25.7,8.6,42.3s-3.4,33-10.2,45.9c-6.8,12.9-16.4,22.7-29,29.5-12.5,6.8-27.4,10.2-44.7,10.2s-24.4-2.2-35.4-6.6c-10.9-4.4-20.5-11-28.6-19.8-8.2-8.9-14.5-20.1-19.1-33.6-4.6-13.6-6.9-29.6-6.9-48ZM340.1,336.2c10.1,0,18.4-3.5,24.8-10.5,6.4-7,9.7-17.9,9.7-32.6s-2.8-21.4-8.3-28.3c-5.5-6.9-13.9-10.3-25.2-10.3s-14.3,1.7-20,5c-5.8,3.3-10.2,7.6-13.5,12.9-3.2,5.3-4.8,10.7-4.8,16.2s.8,11.4,2.4,17.1c1.6,5.6,4,10.8,7.1,15.4,3.1,4.6,7,8.3,11.6,11,4.6,2.8,10,4.1,16.2,4.1Z"/>
  </g>
</svg>