<?xml version="1.0" encoding="UTF-8"?>
<svg id="Layer_1" xmlns="http://www.w3.org/2000/svg" version="1.1" viewBox="0 0 500 500">
  <!-- Generator: Adobe Illustrator 30.1.0, SVG Export Plug-In . SVG Version: 2.1.1 Build 136)  -->
  <defs>
    <style>
      .st0 {
        fill: #b70000;
      }

      .st1 {
        fill: #039;
      }

      .st2 {
        fill: #fff;
      }
    </style>
  </defs>
  <rect class="st1" width="500" height="500"/>
  <path class="st0" d="M140.6,367.1h219.8c15.4,0,25.3-16.2,18.3-29.9l-109.9-194.7c-7.6-15.2-29.3-15.2-36.8,0l-109.9,194.7c-6.7,13.7,3.2,29.9,18.5,29.9Z"/>
  <path class="st2" d="M267.8,321.8c0,10.1-7.4,17.9-17.9,17.9s-17.9-7.8-17.9-17.9v-.4c0-10.1,7.4-17.9,17.9-17.9s17.9,7.8,17.9,17.9v.4Z"/>
  <path class="st2" d="M240.2,190.2h20.6c5.7,0,9.1,4.8,8.4,10.9l-9.1,79.2c-.6,5.7-4.4,9.3-9.7,9.3s-9.1-3.6-9.7-9.3l-9.1-79.2c-.6-6.1,2.7-10.9,8.4-10.9h.2Z"/>
</svg>